<?xml version="1.0" encoding="UTF-8" standalone="no"?>
<!-- Created with Inkscape (http://www.inkscape.org/) -->

<svg
   width="152.27837mm"
   height="177.16911mm"
   viewBox="0 0 152.27837 177.16911"
   version="1.1"
   id="svg1"
   xml:space="preserve"
   xmlns:inkscape="http://www.inkscape.org/namespaces/inkscape"
   xmlns:sodipodi="http://sodipodi.sourceforge.net/DTD/sodipodi-0.dtd"
   xmlns="http://www.w3.org/2000/svg"
   xmlns:svg="http://www.w3.org/2000/svg"><sodipodi:namedview
     id="namedview1"
     pagecolor="#ffffff"
     bordercolor="#000000"
     borderopacity="0.25"
     inkscape:showpageshadow="2"
     inkscape:pageopacity="0.0"
     inkscape:pagecheckerboard="0"
     inkscape:deskcolor="#d1d1d1"
     inkscape:document-units="mm" /><defs
     id="defs1"><inkscape:path-effect
       effect="spiro"
       id="path-effect2"
       is_visible="true"
       lpeversion="1" /><inkscape:path-effect
       effect="spiro"
       id="path-effect1"
       is_visible="true"
       lpeversion="1" /></defs><g
     inkscape:groupmode="layer"
     id="layer2"
     inkscape:label="Capa 2"
     transform="translate(-23.744121,-43.448163)"><path
       style="opacity:1;fill:#000000;stroke-width:0.264583"
       d="m 99.599675,84.058341 c 1.178095,0.243768 2.378485,0.379662 3.581265,0.405426 5.96608,0.127796 11.71027,-2.462008 16.5549,-5.946248 5.62543,-4.045786 10.3421,-9.380844 13.5142,-15.541334 1.91429,-3.717708 3.26977,-7.742628 3.78398,-11.892499 0.31378,-2.532267 0.31378,-5.103256 0,-7.635523 -3.04938,0.284496 -6.06802,0.897302 -8.98695,1.824415 -7.45644,2.368325 -14.23339,6.822266 -19.39288,12.703353 -3.91229,4.459454 -6.91889,9.774694 -8.31123,15.541333 -0.830556,3.4399 -1.082906,7.018664 -0.743285,10.541077 z"
       id="path1"
       inkscape:path-effect="#path-effect1"
       inkscape:original-d="m 99.599675,84.058341 c 0,0 2.364985,0.270285 3.581265,0.405426 1.21628,0.135141 11.0366,-3.964164 16.5549,-5.946248 5.5183,-1.982084 9.00947,-10.36089 13.5142,-15.541334 4.50473,-5.180444 2.52265,-7.928332 3.78398,-11.892499 1.26132,-3.964165 0,-7.635523 0,-7.635523 0,0 -5.94625,1.283848 -8.98695,1.824415 -3.04069,0.540571 -12.95111,8.446379 -19.39288,12.703353 -6.44177,4.256973 -5.54082,10.360887 -8.31123,15.541333 -2.770417,5.180444 -0.810857,10.541077 -0.743285,10.541077 z" /><path
       style="opacity:1;fill:#000000;stroke-width:0.264583"
       d="m 171.15738,103.85665 c -4.64044,2.48672 -8.7459,5.96593 -11.96007,10.13565 -2.61397,3.39108 -4.63771,7.22991 -6.01382,11.28436 -2.2324,6.57735 -2.73908,13.7647 -1.21628,20.54159 1.3401,5.96381 4.23056,11.54845 8.17609,16.21704 2.93558,3.47356 6.45884,6.45754 10.40594,8.71666 1.75092,1.00214 3.58335,1.8618 5.47325,2.5677 -1.53109,5.74427 -3.83302,11.28256 -6.82467,16.41976 -3.34559,5.74497 -7.52585,10.95432 -11.75736,16.0819 -3.69731,4.48026 -7.57733,9.02481 -12.70335,11.75735 -3.78687,2.01867 -8.15847,2.94613 -12.43307,2.5677 -5.01295,-0.4438 -9.68305,-2.60649 -14.46019,-4.1894 -5.2223,-1.73042 -10.72315,-2.78984 -16.21704,-2.50013 -5.582726,0.2944 -11.003947,1.96752 -16.217049,3.98669 -2.706992,1.04849 -5.397313,2.19995 -8.243662,2.77042 -4.413708,0.8846 -9.106162,0.30103 -13.176348,-1.62171 -2.817761,-1.3311 -5.308875,-3.26488 -7.635526,-5.33811 -7.08173,-6.31038 -12.824466,-14.01707 -17.568463,-22.23086 -5.672509,-9.82142 -9.977723,-20.44604 -12.568209,-31.4881 -2.400798,-10.2335 -3.319831,-20.9234 -1.554133,-31.28538 1.738486,-10.20229 6.180987,-20.06522 13.379062,-27.5014 5.200833,-5.372872 11.757355,-9.395572 18.852311,-11.757354 6.26383,-2.085115 13.012243,-2.886425 19.528025,-1.824418 4.989754,0.813279 9.738731,2.687469 14.392624,4.6624 3.191227,1.354232 6.466643,2.786289 9.932938,2.837981 3.88718,0.05797 7.55739,-1.6209 11.14922,-3.108264 5.11576,-2.118418 10.40176,-3.91972 15.87919,-4.729972 6.24364,-0.923594 12.66595,-0.534487 18.78474,1.013566 4.71607,1.193166 9.26765,3.075711 13.37906,5.675963 4.32095,2.73278 8.14148,6.254108 11.21679,10.338368 z"
       id="path2"
       inkscape:path-effect="#path-effect2"
       inkscape:original-d="m 171.15738,103.85665 c -4.00922,3.28845 -8.01843,6.77962 -11.96007,10.13565 -3.94164,3.35603 -3.96417,7.47786 -6.01382,11.28436 -2.04966,3.8065 -0.78833,13.71692 -1.21628,20.54159 -0.42795,6.82467 5.40568,10.78884 8.17609,16.21704 2.77041,5.42821 6.93729,5.81111 10.40594,8.71666 3.46864,2.90556 5.47325,2.5677 5.47325,2.5677 0,0 -4.43716,11.01408 -6.82467,16.41976 -2.38751,5.40568 -7.83824,10.74379 -11.75736,16.0819 -3.91912,5.33811 -8.51395,7.79319 -12.70335,11.75735 -4.1894,3.96417 -8.31123,1.7118 -12.43307,2.5677 -4.12183,0.8559 -9.59508,-2.77041 -14.46019,-4.1894 -4.86511,-1.41899 -10.81136,-1.66675 -16.21704,-2.50013 -5.405687,-0.83337 -10.833892,2.63527 -16.217049,3.98669 -5.383157,1.35142 -5.495774,1.84694 -8.243662,2.77042 -2.747889,0.92347 -8.784233,-1.10367 -13.176348,-1.62171 -4.392118,-0.51804 -5.067827,-3.53622 -7.635526,-5.33811 -2.567699,-1.80189 -11.712307,-14.8431 -17.568463,-22.23086 -5.856155,-7.38777 -8.378806,-20.96954 -12.568209,-31.4881 -4.189402,-10.51855 -1.013565,-20.87944 -1.554133,-31.28538 -0.540568,-10.40593 8.919375,-18.28922 13.379062,-27.5014 4.459687,-9.212179 12.568208,-7.860758 18.852311,-11.757354 6.284105,-3.896595 13.041206,-1.216279 19.528025,-1.824418 6.486816,-0.60814 9.550035,3.108266 14.392624,4.6624 4.842589,1.554133 6.62196,1.891988 9.932938,2.837981 3.31098,0.945997 7.47786,-2.072177 11.14922,-3.108264 3.67136,-1.036089 10.54108,-3.153314 15.87919,-4.729972 5.33811,-1.576657 12.52316,0.720757 18.78474,1.013566 6.26158,0.292807 8.91937,3.738928 13.37906,5.675963 4.45969,1.937036 11.14922,10.270798 11.21679,10.338368 z" /></g></svg>
