<?xml version="1.0" encoding="UTF-8" standalone="no"?>
<!-- Created with Inkscape (http://www.inkscape.org/) -->

<svg
   width="270.93332mm"
   height="270.93332mm"
   viewBox="0 0 270.93332 270.93332"
   version="1.1"
   id="svg1"
   xml:space="preserve"
   inkscape:version="1.3.2 (091e20e, 2023-11-25, custom)"
   sodipodi:docname="Logo_adventure.svg"
   xmlns:inkscape="http://www.inkscape.org/namespaces/inkscape"
   xmlns:sodipodi="http://sodipodi.sourceforge.net/DTD/sodipodi-0.dtd"
   xmlns="http://www.w3.org/2000/svg"
   xmlns:svg="http://www.w3.org/2000/svg"><sodipodi:namedview
     id="namedview1"
     pagecolor="#ffffff"
     bordercolor="#000000"
     borderopacity="0.25"
     inkscape:showpageshadow="2"
     inkscape:pageopacity="0.0"
     inkscape:pagecheckerboard="0"
     inkscape:deskcolor="#d1d1d1"
     inkscape:document-units="mm"
     inkscape:zoom="0.69219276"
     inkscape:cx="511.41823"
     inkscape:cy="489.02563"
     inkscape:window-width="1920"
     inkscape:window-height="991"
     inkscape:window-x="-9"
     inkscape:window-y="-9"
     inkscape:window-maximized="1"
     inkscape:current-layer="layer1" /><defs
     id="defs1" /><g
     inkscape:label="Capa 1"
     inkscape:groupmode="layer"
     id="layer1"
     transform="translate(30.35083,-13.03334)"><path
       style="fill:#000000"
       d="M -30.35083,148.5 V 13.03334 H 105.11583 240.58249 V 148.5 283.96666 H 105.11583 -30.35083 Z m 101.514974,83.23825 c 0.08884,-0.0623 -5.210361,-12.06836 -6.172015,-13.98357 -0.489669,-0.97521 -0.773388,-1.25677 -1.266407,-1.25677 -0.349448,0 -0.824535,-0.0726 -1.055749,-0.16131 -0.326589,-0.12533 -0.689311,0.42074 -1.625661,2.44739 -0.6629,1.43479 -2.286058,4.90385 -3.607018,7.70902 -1.32096,2.80517 -2.347803,5.15426 -2.281873,5.22019 0.06593,0.0659 0.922707,0.0449 1.903949,-0.0467 1.744406,-0.1629 1.795632,-0.18925 2.303771,-1.18529 l 0.519696,-1.01868 1.912851,-0.002 c 1.052069,-0.001 2.517613,-0.075 3.256765,-0.1638 1.473916,-0.17712 1.346094,-0.29773 2.21727,2.09206 0.26665,0.73147 0.277484,0.73442 2.057606,0.55914 0.984249,-0.0969 1.810816,-0.19112 1.836815,-0.20935 z m -8.92979,-5.68674 -0.945019,-0.16089 0.967344,-2.06061 0.967344,-2.06062 0.837571,1.81714 c 1.086158,2.35645 1.08318,2.71169 -0.02232,2.66342 -0.472943,-0.0207 -1.285154,-0.10995 -1.804915,-0.19844 z m 89.315806,5.26309 c 0.83398,-0.40372 1.40725,-0.93683 1.88613,-1.75397 0.59434,-1.01416 0.67323,-1.40569 0.57958,-2.87646 -0.16616,-2.60953 -1.11093,-3.40881 -4.98382,-4.21633 -2.58271,-0.53851 -3.67694,-1.56986 -2.39403,-2.25645 0.80755,-0.43219 2.18879,-0.3192 3.13264,0.25626 0.9162,0.55861 1.91183,0.70068 1.91183,0.2728 0,-0.14045 0.35719,-0.66219 0.79375,-1.15941 0.43657,-0.49721 0.79375,-0.9802 0.79375,-1.07331 0,-0.0931 -0.73283,-0.64293 -1.62852,-1.22184 -1.44973,-0.937 -1.80556,-1.05192 -3.24114,-1.04675 -1.97061,0.007 -3.42862,0.62184 -4.57703,1.9298 -1.75667,2.00074 -1.62847,3.90719 0.40248,5.98546 1.09177,1.11721 1.47482,1.32359 3.22338,1.73678 1.09141,0.2579 2.19273,0.57583 2.4474,0.70651 0.62302,0.31969 0.59225,1.45411 -0.0488,1.79716 -1.17512,0.62891 -3.9069,0.11276 -5.09528,-0.96271 -0.4332,-0.39204 -0.54899,-0.34932 -1.59719,0.58925 -0.62157,0.55655 -1.16619,1.09762 -1.21027,1.20237 -0.16042,0.38119 1.91147,1.69177 3.62012,2.28991 2.11709,0.74112 4.18488,0.67234 5.98498,-0.19907 z m -69.122629,-2.31513 c 0.659845,-1.56434 1.343547,-3.29873 1.519337,-3.85418 0.17579,-0.55545 0.355162,-0.97217 0.398604,-0.92604 0.04344,0.0461 0.638281,1.51262 1.321865,3.25887 1.639495,4.18817 1.761351,4.36563 2.997816,4.36563 h 0.999623 l 0.99409,-2.84428 c 0.54675,-1.56434 1.399685,-4.23665 1.895411,-5.93846 0.495726,-1.7018 1.255218,-3.87469 1.68776,-4.82864 l 0.78644,-1.73446 h -1.957266 -1.957266 l -1.305562,4.0349 c -0.718059,2.21919 -1.403911,4.01392 -1.524116,3.98828 -0.120205,-0.0256 -0.709453,-1.51392 -1.30944,-3.30729 -1.604557,-4.79605 -1.989216,-5.39736 -3.242973,-5.0695 -0.63687,0.16655 -1.262228,1.55135 -2.429858,5.3807 -1.196743,3.92483 -1.078622,3.65494 -1.331722,3.0427 -0.120317,-0.29104 -0.684124,-2.19604 -1.252905,-4.23333 l -1.034147,-3.70417 -2.158696,-0.0768 c -1.187282,-0.0423 -2.158695,0.0205 -2.158695,0.13956 0,0.11903 0.200888,0.50322 0.446417,0.85377 0.245529,0.35054 1.245634,2.96664 2.222456,5.81355 0.976822,2.84692 2.043083,5.92035 2.369468,6.82986 l 0.593427,1.65365 h 1.115107 1.115107 z m 18.785259,1.7198 0.3744,-1.12448 3.18059,-0.074 3.18059,-0.074 0.4577,1.19846 0.45769,1.19846 h 1.9908 c 1.49186,0 1.95527,-0.0829 1.84904,-0.33073 -0.078,-0.1819 -0.87416,-1.93808 -1.76931,-3.90261 -0.89516,-1.96453 -1.98331,-4.46484 -2.41813,-5.55625 -0.43482,-1.0914 -1.2203,-2.84758 -1.74551,-3.9026 -0.93738,-1.88297 -0.97363,-1.91823 -1.97201,-1.91823 -0.80771,0 -1.06615,0.12254 -1.25548,0.59531 -0.13113,0.32742 -0.79497,1.84547 -1.47521,3.37344 -0.68024,1.52797 -1.86313,4.26641 -2.62864,6.08542 -0.765509,1.81901 -1.646924,3.72401 -1.958698,4.23333 l -0.566862,0.92604 0.859894,0.16361 c 0.472942,0.09 1.355988,0.17928 1.962325,0.19844 1.071511,0.0339 1.112931,0.003 1.476821,-1.08965 z m 2.05096,-4.95371 c 0,-0.34904 1.34209,-3.16285 1.57816,-3.30875 0.2583,-0.15964 1.2336,1.65212 1.4568,2.70621 l 0.18208,0.85989 h -1.60852 c -0.88469,0 -1.60852,-0.11581 -1.60852,-0.25735 z m 17.57589,5.35058 c -0.0104,-0.32742 -0.0402,-3.75047 -0.0662,-7.60677 l -0.0472,-7.01146 h -1.7198 -1.71979 v 7.52613 7.52613 l 1.25677,0.10352 c 2.08996,0.17215 2.31705,0.11899 2.29621,-0.53755 z m 12.32202,-5.12077 V 220.147 l 2.12884,0.18845 2.12883,0.18844 -0.0783,-1.94684 -0.0783,-1.94685 -5.42396,-0.13229 c -2.98317,-0.0728 -5.50284,-0.0728 -5.59926,0 -0.0964,0.0728 -0.26059,0.94972 -0.36482,1.94879 l -0.18952,1.81649 2.08461,-0.18474 2.08462,-0.18474 -0.0694,4.05679 c -0.0382,2.23123 -0.0977,4.85543 -0.13229,5.83154 l -0.0629,1.77476 1.19062,0.0958 c 0.65485,0.0527 1.45852,0.11725 1.78594,0.14347 l 0.59531,0.0477 z m -84.822581,-2.13568 c 0.575474,-0.8216 0.527763,-1.96285 -0.108663,-2.59928 -0.516517,-0.51651 -0.881945,-0.52916 -15.286961,-0.52916 -16.390487,0 -15.933871,-0.048 -15.933871,1.67592 0,0.46869 0.164666,1.08702 0.365924,1.37406 0.355823,0.50748 0.782466,0.52406 15.454497,0.60035 l 15.088571,0.0785 z m 144.979061,0.17728 c 1.05511,-1.05511 0.5382,-2.66577 -0.98637,-3.0735 -1.28028,-0.3424 -29.81086,-0.28913 -30.22724,0.0564 -0.46321,0.38443 -0.46451,2.07545 -0.002,2.68448 0.31789,0.41865 1.18341,0.4661 9.71503,0.53266 5.15132,0.0402 12.00668,0.10126 15.23412,0.13572 4.93216,0.0527 5.93163,-9e-4 6.26653,-0.33579 z M 19.322388,207.9651 c 0.143512,-0.1819 0.337322,-1.16417 0.430689,-2.18281 0.301845,-3.29318 -0.01852,-3.04271 3.891751,-3.04271 h 3.398526 l 0.316366,1.12448 c 0.174001,0.61846 0.340176,1.83885 0.369279,2.71198 l 0.05291,1.5875 2.688359,0.0754 c 3.152913,0.0885 3.279506,-0.0179 2.319388,-1.94941 -0.3557,-0.71557 -1.190889,-3.68229 -1.855974,-6.59271 -0.665086,-2.91041 -1.754823,-7.55385 -2.421638,-10.31875 -1.955579,-8.10865 -2.501688,-10.54643 -2.504233,-11.17864 -0.0023,-0.57542 -0.0864,-0.59531 -2.515939,-0.59531 -2.428413,0 -2.513751,0.0202 -2.519728,0.59531 -0.01009,0.97122 -1.158249,6.39381 -3.283747,15.5087 -1.098291,4.70987 -2.132177,9.3533 -2.297523,10.31875 -0.165346,0.96545 -0.464091,2.07687 -0.663878,2.46982 -0.199786,0.39296 -0.363248,0.95851 -0.363248,1.25677 0,0.50597 0.157419,0.54231 2.348853,0.54231 1.56353,0 2.436094,-0.11058 2.609784,-0.33073 z m 2.33638,-11.84785 c 0.396277,-2.07974 1.647623,-6.90642 1.840548,-7.09935 0.06867,-0.0687 0.163379,-0.0752 0.210469,-0.0146 0.220281,0.28363 2.232694,8.59698 2.123746,8.77326 -0.06816,0.11029 -1.1151,0.20052 -2.326532,0.20052 h -2.202606 z m 21.809148,11.84153 c 2.317685,-0.0662 3.021309,-0.19182 4.245406,-0.75781 1.987027,-0.91875 3.271815,-2.10604 4.09113,-3.78066 l 0.684832,-1.39975 -0.07891,-9.37484 -0.07891,-9.37484 -0.910749,-1.50211 C 50.39384,180.07515 48.776312,178.78522 46.950984,178.20432 45.640945,177.78741 35.795,177.36541 35.795,177.72617 c 0,0.10527 0.238125,0.49413 0.529166,0.86413 0.513753,0.65313 0.528922,1.06668 0.520752,14.19694 -0.0071,11.47251 -0.06735,13.60213 -0.396875,14.03781 -0.883954,1.16869 -0.493264,1.37829 2.382169,1.27798 1.022769,-0.0357 3.109735,-0.10059 4.637704,-0.14425 z m -1.984375,-15.01484 v -10.45709 l 1.058333,-0.0396 c 2.152894,-0.0806 3.303225,0.19663 4.244498,1.02308 l 0.914877,0.80328 v 8.57543 8.57543 l -0.859896,0.90673 c -0.830923,0.87618 -0.935669,0.90948 -3.108854,0.98831 l -2.248958,0.0816 z m 52.122914,12.75852 v -2.46107 l -4.894791,0.0798 -4.894792,0.0798 v -4.03482 -4.03482 l 2.248958,-0.0489 c 1.236927,-0.0269 2.487084,-0.0747 2.778125,-0.10629 0.291042,-0.0316 0.856589,-0.0691 1.256771,-0.0834 l 0.727604,-0.0261 v -2.33804 -2.33804 l -3.439583,0.1242 -3.439583,0.1242 v -4.00386 -4.00387 h 4.7625 4.762499 l 0.0029,-1.52136 c 0.0016,-0.83674 0.07484,-1.95628 0.162743,-2.48785 l 0.15983,-0.9665 -7.769513,0.0826 c -4.273232,0.0454 -7.797528,0.0934 -7.831769,0.1066 -0.03424,0.0132 0.173673,0.41096 0.462031,0.8839 0.504363,0.82722 0.524327,1.36798 0.525278,14.22863 8.79e-4,11.88172 -0.04656,13.43662 -0.426506,13.97907 -0.248939,0.35541 -0.329395,0.70843 -0.192627,0.8452 0.230874,0.23088 4.820123,0.382 11.60033,0.382 h 3.439583 z m 9.378675,2.21341 c 0.22957,-0.27662 0.23838,-0.52375 0.0324,-0.90865 -0.33999,-0.63528 -0.38997,-15.86004 -0.0538,-16.39018 0.15888,-0.25056 0.31839,-0.10176 0.56723,0.52916 0.37797,0.95834 3.77481,8.86787 5.88793,13.71005 0.7303,1.67349 1.41783,3.10224 1.52782,3.175 0.11,0.0728 1.01594,0.094 2.01321,0.0471 l 1.81321,-0.0852 v -14.59918 c 0,-8.02954 0.0595,-14.83729 0.13229,-15.12834 0.12533,-0.50131 0,-0.52916 -2.38125,-0.52916 -2.36931,0 -2.508,0.0304 -2.41706,0.52916 0.10422,0.57168 0.20785,16.53645 0.10734,16.53646 -0.20696,1e-5 -2.24599,-4.58006 -5.88959,-13.22917 -0.76629,-1.81901 -1.52688,-3.44228 -1.6902,-3.60728 -0.39307,-0.39711 -4.797351,-0.65002 -5.151548,-0.29582 -0.182136,0.18214 -0.09895,0.49875 0.257813,0.9813 0.512422,0.69309 0.524494,1.08143 0.445082,14.31867 -0.06187,10.31306 -0.162097,13.74693 -0.414104,14.18745 -0.283031,0.49475 -0.263357,0.62144 0.132292,0.85185 0.742985,0.43268 4.704805,0.36 5.080945,-0.0932 z m 46.74277,-0.35879 c 1.41663,-0.72623 3.3603,-2.9028 3.74812,-4.19724 0.21113,-0.70466 0.30671,-4.60795 0.30843,-12.59463 0.002,-9.9287 0.0599,-11.66112 0.4064,-12.18996 0.22216,-0.33905 0.32412,-0.69624 0.2266,-0.79377 -0.24495,-0.24495 -5.64738,-0.2247 -5.63696,0.0211 0.005,0.10914 0.17566,0.41921 0.38006,0.68903 0.31054,0.40994 0.3492,2.30218 0.23517,11.50938 -0.0833,6.72541 -0.245,11.30496 -0.415,11.75325 -0.92951,2.45111 -4.75683,2.27114 -5.50344,-0.2588 -0.20491,-0.69436 -0.27068,-4.532 -0.21285,-12.42009 l 0.0837,-11.41525 -2.64583,-0.11978 c -1.45521,-0.0659 -2.75023,-0.0277 -2.87782,0.0849 -0.12806,0.11301 0.0201,0.61264 0.33073,1.11523 0.55074,0.89111 0.56283,1.15196 0.56852,12.25634 0.006,10.82669 0.0304,11.39999 0.54248,12.52896 1.03974,2.29216 2.3777,3.54737 4.71223,4.42081 1.37269,0.51358 4.38605,0.30942 5.74947,-0.38954 z m 45.24652,0.53626 c 0.20408,-0.13351 0.24551,-0.93025 0.13229,-2.54422 l -0.16484,-2.34983 -4.82865,0.0499 -4.82864,0.0499 -0.002,-1.8011 c -8.7e-4,-0.99061 -0.0781,-2.78337 -0.17151,-3.98392 l -0.16992,-2.18281 h 3.61109 3.61109 v -2.54306 -2.54305 l -3.43958,0.19132 -3.43958,0.19131 v -3.99826 -3.99826 h 4.82864 l 4.82865,-1e-5 -0.002,-2.53336 -0.002,-2.53336 -7.62157,-0.007 c -4.19187,-0.004 -7.69977,0.0709 -7.79534,0.1665 -0.0956,0.0956 -0.0462,0.25658 0.10969,0.35781 0.86295,0.56032 0.91622,1.3774 0.95074,14.5844 0.0312,11.94071 -0.008,13.26348 -0.40907,13.87593 -0.97649,1.49031 -1.04398,1.47348 6.23715,1.5557 3.67441,0.0415 7.03792,0.10125 7.47448,0.13278 0.43657,0.0315 0.92746,-0.0301 1.09089,-0.13704 z M 68.246304,205.51771 c 0.338248,-1.30969 0.861507,-3.45282 1.162797,-4.7625 0.30129,-1.30969 1.25261,-5.11969 2.114044,-8.46667 0.861433,-3.34698 1.806454,-7.25655 2.100045,-8.68794 0.29359,-1.43138 0.828315,-3.33166 1.188276,-4.22283 0.686169,-1.69878 0.560897,-2.19779 -0.471065,-1.87644 -0.264352,0.0823 -1.425211,0.15988 -2.579688,0.17235 l -2.099048,0.0227 v 0.99538 c 0,0.54746 -0.346915,2.46148 -0.770922,4.25338 -0.424007,1.7919 -1.205957,5.46066 -1.737668,8.15279 -1.347379,6.822 -1.569662,7.75352 -1.874415,7.8551 -0.15209,0.0507 -0.579204,-1.5954 -0.990358,-3.81683 -0.629582,-3.40159 -1.532463,-7.69549 -3.255303,-15.48149 l -0.453727,-2.05052 h -2.051747 c -1.128461,0 -2.210313,-0.0583 -2.404116,-0.12952 -0.193803,-0.0712 -0.508086,-0.0302 -0.698406,0.0912 -0.275152,0.17552 -0.235367,0.40831 0.194216,1.1364 0.305361,0.51755 1.175977,3.72767 2.00241,7.38326 0.804185,3.55718 1.874156,8.13447 2.377712,10.17176 0.753211,3.04734 1.589594,6.56768 2.658225,11.18847 0.134887,0.58326 0.227345,0.6024 2.556845,0.52917 l 2.416896,-0.076 z m 60.922686,2.26934 c 0.30676,-0.1942 0.31536,-0.37513 0.0485,-1.01949 -0.23695,-0.57205 -0.33756,-3.95138 -0.37295,-12.526 l -0.0485,-11.7426 2.97656,0.0889 2.97656,0.0889 v -2.69946 c 0,-2.67032 -0.006,-2.69773 -0.59531,-2.53992 -0.32742,0.0877 -4.03127,0.16117 -8.23077,0.16315 l -7.63545,0.004 0.15552,0.61965 c 0.0855,0.34082 0.1734,1.48887 0.19523,2.55124 l 0.0397,1.93158 2.90263,-0.17629 2.90264,-0.17629 -0.14604,12.11099 c -0.0803,6.66104 -0.22517,12.43841 -0.3219,12.83859 l -0.17586,0.72761 2.47824,-0.004 c 1.36303,-0.002 2.64606,-0.1103 2.85119,-0.24015 z m 35.25617,-0.54955 c -0.1134,-0.83685 -0.50395,-10.68856 -0.4279,-10.79379 0.0311,-0.043 0.73608,-0.10252 1.56669,-0.13229 l 1.5102,-0.0541 1.7044,4.89479 c 1.11563,3.20393 1.67913,5.21468 1.63123,5.82083 l -0.0732,0.92605 2.97607,0.0748 c 3.24047,0.0814 3.36033,0.0173 2.42462,-1.29674 -0.60952,-0.85599 -2.17594,-4.76254 -3.22322,-8.03849 -1.13362,-3.54604 -1.14133,-3.38235 0.21154,-4.49092 0.65695,-0.53833 1.45952,-1.4745 1.78348,-2.08038 0.53189,-0.99475 0.58611,-1.45222 0.55893,-4.71591 -0.0287,-3.44462 -0.068,-3.69523 -0.83703,-5.33864 -0.95665,-2.04431 -2.5489,-3.35857 -4.82141,-3.97965 -1.19154,-0.32565 -8.3744,-0.63761 -10.51719,-0.45678 -0.47603,0.0402 -0.40831,0.47357 0.20324,1.30074 0.52193,0.70594 0.53202,1.02655 0.44751,14.21064 -0.0476,7.41862 -0.18349,13.82015 -0.30208,14.22562 l -0.2156,0.73722 2.74466,-0.0758 2.74466,-0.0758 z m -0.36268,-19.76833 0.0769,-4.99996 1.96466,-0.0627 c 3.38358,-0.10802 4.27538,0.71849 4.38205,4.06123 0.11144,3.49198 0.0605,3.75839 -0.92365,4.83253 -0.89747,0.97952 -0.92626,0.9891 -3.24114,1.07859 l -2.33563,0.0903 z m 18.28294,-18.9429 c 1.51616,-2.64996 3.52405,-7.46146 4.81914,-11.54808 3.88118,-12.24693 4.83659,-25.50845 2.71711,-37.71465 -0.97392,-5.6089 -1.86348,-9.07489 -3.59902,-14.02291 -3.73602,-10.651368 -9.65333,-20.64248 -17.14987,-28.956793 -10.89325,-12.081563 -22.62379,-19.948188 -36.72337,-24.627081 -5.03587,-1.671134 -6.38728,-1.98859 -12.87379,-3.024141 -8.54847,-1.364735 -18.5086,-1.477061 -25.796873,-0.290927 -7.049957,1.147349 -8.744407,1.519277 -13.626041,2.990884 -7.36768,2.221045 -13.609243,4.94939 -19.051803,8.328026 -7.728564,4.797743 -17.078395,13.055725 -22.704296,20.052948 -2.465085,3.065952 -6.933623,9.85467 -8.704406,13.223957 -4.921215,9.363647 -8.152095,19.875587 -9.351865,30.427077 -0.55577,4.88779 -0.410579,16.61207 0.258848,20.90209 0.999601,6.40594 3.115739,13.58959 5.998167,20.36195 l 2.144273,5.03805 h 2.513496 2.513496 l -0.738369,-1.25678 c -2.185132,-3.71929 -5.097436,-11.00553 -6.567327,-16.43068 -0.510456,-1.88401 -1.252647,-5.37233 -1.649314,-7.75182 -0.657734,-3.94556 -0.722113,-4.95512 -0.731443,-11.4701 -0.01318,-9.20602 0.499842,-13.18176 2.76756,-21.44745 1.42998,-5.21218 2.790325,-8.89445 4.930153,-13.345254 C 34.816687,91.56488 38.268056,86.273195 43.241091,80.33077 55.773012,65.35601 73.0929,55.694204 92.680413,52.75131 c 9.676237,-1.45379 18.055227,-1.381395 27.913537,0.241174 7.93028,1.305235 16.02514,4.066164 23.01875,7.851051 7.63096,4.129811 13.28959,8.461655 19.84984,15.195604 8.17257,8.388956 14.26856,17.902725 18.16266,28.345731 5.36828,14.39637 6.609,30.0827 3.48846,44.10453 -0.93728,4.21157 -2.57894,9.89598 -3.40553,11.79193 -1.25885,2.88745 -3.38765,7.12149 -4.14454,8.24323 l -0.74684,1.10684 0.72818,0.11028 c 0.4005,0.0607 1.46359,0.12812 2.36242,0.14993 l 1.63422,0.0396 z M 56.617144,165.71453 c 6.181041,-6.23745 11.721604,-12.25561 11.721604,-12.73201 0,-0.14257 -1.415051,-0.24919 -3.307291,-0.24919 -1.819011,0 -3.307292,-0.0994 -3.307292,-0.22082 0,-0.95429 3.44873,-8.17676 5.873263,-12.30003 0.412687,-0.70184 0.930439,-1.71387 1.150558,-2.24896 0.338032,-0.82173 0.0403,-0.58234 -1.916198,1.54065 -3.853361,4.18128 -9.336208,9.80873 -16.884894,17.3302 -8.647463,8.6163 -11.340552,11.85128 -10.535922,12.65591 0.09701,0.097 3.126901,0.17639 6.733083,0.17639 h 6.556694 z m 37.801911,1.09601 c 4.063353,-4.29592 12.283635,-14.20306 12.284045,-14.80481 1.8e-4,-0.2527 -1.17015,-0.33158 -4.96071,-0.33434 -2.728513,-0.002 -5.220338,-0.0732 -5.537386,-0.15822 -0.557988,-0.14965 -0.530811,-0.24487 0.84857,-2.97295 1.444545,-2.85696 2.90941,-6.58703 4.847456,-12.34334 0.58793,-1.74625 1.43271,-4.05458 1.8773,-5.12962 0.44458,-1.07504 0.80833,-2.12464 0.80833,-2.33244 0,-0.2078 -0.70621,0.51088 -1.56937,1.59707 -0.86316,1.08619 -1.69721,2.0539 -1.85346,2.15047 -0.15625,0.0966 -1.197332,1.32902 -2.313526,2.73879 -2.191718,2.76818 -2.164923,2.7379 -9.851321,11.1347 -2.850161,3.11359 -6.295297,6.92359 -7.655858,8.46667 -3.150872,3.57357 -10.191455,11.46554 -12.096182,13.55893 -0.482289,0.53006 -0.804558,1.03608 -0.716153,1.12448 0.08841,0.0884 5.341593,0.16074 11.673752,0.16074 h 11.513015 z m 42.875145,-2.27895 c 0.0951,-0.30441 1.16869,-2.62561 2.3858,-5.15823 1.2171,-2.53262 2.21291,-4.71353 2.21291,-4.84647 0,-0.13295 -0.21893,-0.17223 -0.48652,-0.0873 -0.26758,0.0849 -2.08328,0.49857 -4.03489,0.9192 -1.95161,0.42063 -3.88069,0.84955 -4.28684,0.95315 l -0.73846,0.18837 0.573,-1.42047 c 1.20877,-2.99652 5.6599,-16.48194 6.22027,-18.8453 0.16158,-0.6815 0.13005,-0.72937 -0.31958,-0.48527 -0.75329,0.40896 -7.4264,7.40054 -13.80489,14.46371 l -1.39978,1.55004 0.88707,0.94818 c 5.37047,5.74039 8.64618,9.51205 9.84284,11.33307 0.40641,0.61846 0.83415,1.12448 0.95053,1.12448 0.11637,0 0.2904,0.24831 0.38672,0.55179 l 0.17514,0.55179 0.6319,-0.59364 c 0.34754,-0.3265 0.70969,-0.8427 0.80478,-1.1471 z m 40.60349,-6.03992 c 1.57826,-3.94825 2.56024,-7.52901 3.57449,-13.03438 1.90539,-10.34238 1.62875,-20.12609 -0.85285,-30.1625 -1.98276,-8.01896 -4.2997,-13.73387 -8.63501,-21.298954 -7.34504,-12.817024 -19.09837,-23.790327 -32.60495,-30.441069 -7.09546,-3.493858 -12.15517,-5.136859 -20.24062,-6.57258 -13.38543,-2.37683 -29.000931,-0.812872 -42.27621,4.234142 -5.115125,1.944675 -12.336216,5.856187 -16.461292,8.916733 -10.76383,7.986084 -18.051035,16.497959 -24.402394,28.503404 -5.2482,9.920234 -8.47302,24.541354 -8.021684,36.369784 0.350686,9.19064 2.621095,18.91543 6.192569,26.52448 0.734262,1.56435 1.456053,2.84427 1.603979,2.84427 0.450253,0 4.131358,-3.34111 5.913771,-5.36756 1.820718,-2.07 13.630046,-14.15951 23.271712,-23.82384 l 6.026193,-6.04036 2.132021,1.9251 c 1.172612,1.05881 2.346956,2.22016 2.609654,2.58079 l 0.477632,0.65568 5.393586,-5.32076 5.393585,-5.32077 -0.974341,-1.00924 c -1.132413,-1.17298 -1.99483,-2.80999 -3.040707,-5.77175 -0.700875,-1.98477 -0.747452,-2.38046 -0.747452,-6.35 0,-4.10377 0.02769,-4.31795 0.904824,-6.99835 0.698259,-2.13379 1.329077,-3.40224 2.763196,-5.556252 2.281709,-3.427067 5.778098,-6.981515 8.199463,-8.33562 1.976995,-1.105598 5.370624,-2.324489 7.805615,-2.803544 2.32446,-0.457308 7.55188,-0.18456 10.22482,0.533494 5.16633,1.387879 11.45674,6.495486 13.96857,11.342029 1.77679,3.428293 2.28977,5.101523 2.55258,8.325953 0.52059,6.38711 -0.33099,9.86731 -3.62035,14.7955 l -1.18689,1.77822 0.63715,0.73533 c 0.35044,0.40443 2.68838,2.75456 5.19543,5.22251 l 4.55827,4.48718 2.78522,-2.76739 c 2.57065,-2.55418 2.80781,-2.72662 3.07841,-2.23822 0.40549,0.73184 13.37444,14.07672 28.33188,29.15313 l 6.61098,6.66355 0.91471,-1.90105 c 0.50309,-1.04558 1.37809,-3.06027 1.94444,-4.47709 z m -14.97041,-14.15243 c -0.86057,-0.20393 -1.71979,-1.16806 -1.71979,-1.92977 0,-1.41266 0.44653,-1.53043 6.13333,-1.61759 4.78266,-0.0733 5.25192,-0.0394 5.75469,0.41557 0.74654,0.67562 0.6961,1.76895 -0.11685,2.53268 -0.63819,0.59954 -0.83809,0.626 -5.09323,0.67427 -2.43594,0.0276 -4.6671,-0.006 -4.95815,-0.0752 z m -126.007801,-0.5156 c -0.814581,-0.56822 -0.75356,-1.5561 0.152059,-2.46172 0.823002,-0.823 1.290468,-0.90088 7.239844,-1.20613 1.948786,-0.1 3.282941,-0.0567 3.607586,0.11705 0.721443,0.3861 0.91848,1.44321 0.469357,2.51812 -0.526209,1.25939 -1.508334,1.47539 -6.640201,1.46035 -3.402363,-0.01 -4.350188,-0.0939 -4.828645,-0.42767 z m 2.14305,-11.17278 c -2.984084,-0.17573 -3.796696,-0.57767 -3.796696,-1.87794 0,-1.51706 -0.137649,-1.49752 13.111097,-1.86087 6.70178,-0.18379 12.624179,-0.25179 13.160888,-0.1511 0.724316,0.13588 1.016029,0.34322 1.131787,0.80444 0.160006,0.63751 -0.373571,1.95339 -0.99414,2.45168 -0.218814,0.17571 -3.690489,0.34588 -9.344008,0.45802 -4.947708,0.0981 -9.35302,0.21343 -9.789583,0.25619 -0.436562,0.0428 -2.002268,0.007 -3.479345,-0.0804 z m 119.850441,-0.13484 -9.83514,-0.28789 -0.68204,-0.64144 c -0.68009,-0.63959 -0.88255,-1.67563 -0.45815,-2.3445 0.39677,-0.62533 2.15048,-0.66711 14.02829,-0.33419 12.68766,0.35561 12.68505,0.35526 13.33287,1.77708 0.27903,0.61238 0.2263,0.75171 -0.54538,1.44121 -0.99594,0.88987 0.22181,0.85991 -15.84045,0.38973 z M 38.250956,122.90486 c -1.103916,-0.0772 -1.488236,-0.23346 -1.918229,-0.78011 -0.685918,-0.87201 -0.676258,-1.21752 0.05759,-2.05963 l 0.595313,-0.68314 19.883374,-0.0409 c 18.279412,-0.0376 19.938534,-0.005 20.567152,0.40715 0.957011,0.62706 1.157128,1.63426 0.499672,2.51489 l -0.526019,0.70457 -18.889173,0.0168 c -10.389045,0.009 -19.510399,-0.0266 -20.269675,-0.0797 z m 94.943264,-0.48501 c -0.74451,-0.9465 -0.70944,-1.84202 0.10399,-2.65545 l 0.66571,-0.66571 19.11189,0.14975 c 10.51154,0.0824 19.43931,0.14922 19.8395,0.14857 0.88833,-10e-4 1.78593,0.83915 1.78593,1.6725 0,0.33843 -0.26789,0.86088 -0.59531,1.16099 -0.5865,0.53758 -0.88965,0.54831 -20.47264,0.72457 l -19.87734,0.1789 z m -94.854092,-9.75982 c -0.589802,-0.90015 -0.536923,-1.53673 0.183904,-2.21391 l 0.612365,-0.57528 H 57.26844 c 17.470522,0 18.148622,0.0183 18.58646,0.50212 0.318448,0.35188 0.429677,0.84668 0.371736,1.65365 l -0.08268,1.15152 -18.687683,0.0679 -18.687684,0.0679 z m 96.585422,0.474 c -0.30409,-0.30409 -0.1921,-2.34707 0.15434,-2.81549 0.30423,-0.41136 1.76155,-0.45092 18.1901,-0.49375 9.82266,-0.0256 18.13498,0.0443 18.47182,0.1553 0.33685,0.11102 0.70745,0.45867 0.82356,0.77254 0.26794,0.72431 -0.15448,1.96136 -0.78498,2.29879 -0.54578,0.29209 -36.56462,0.37283 -36.85484,0.0826 z m -84.534012,-9.34861 c -6.769412,-0.12384 -7.255564,-0.16512 -7.606771,-0.64588 -0.521001,-0.7132 -0.468409,-1.64215 0.126659,-2.23721 0.776206,-0.77621 4.516605,-0.916593 19.950203,-0.74877 10.107444,0.10991 13.805947,0.23267 14.089062,0.46764 0.448916,0.37256 0.51224,2.16543 0.10346,2.92924 -0.27279,0.50972 -0.541266,0.52186 -9.855728,0.44563 -5.266415,-0.0431 -12.829513,-0.13789 -16.806885,-0.21065 z m 83.330652,-0.20599 c -0.46927,-0.87684 -0.35395,-2.10061 0.25106,-2.66426 0.5038,-0.46936 1.15701,-0.5242 8.26823,-0.69415 4.24667,-0.1015 11.63118,-0.1447 16.41001,-0.096 l 8.68878,0.0885 0.50549,0.62463 c 0.6631,0.81939 0.63827,1.44544 -0.0898,2.26457 l -0.59531,0.66974 -16.57125,0.17996 -16.57124,0.17996 z m -4.41347,-9.720146 c -0.68668,-1.171724 -0.69107,-1.208901 -0.22649,-1.91793 1.40405,-2.142851 15.09562,-16.201767 15.77843,-16.201767 0.62919,0 1.7404,0.726982 2.07939,1.360386 0.18071,0.337665 0.1657,0.678189 -0.0479,1.08701 -0.17108,0.327422 -2.82441,3.155816 -5.89629,6.285321 -3.07188,3.129504 -6.58912,6.790676 -7.81608,8.135937 -1.22695,1.345261 -2.44233,2.445928 -2.70082,2.445928 -0.27752,0 -0.75677,-0.489342 -1.17024,-1.194885 z M 71.974269,86.509315 c -5.702461,-5.602816 -8.402217,-8.432685 -8.400521,-8.805378 0.0036,-0.781209 1.086504,-1.699767 2.003965,-1.699767 0.606551,0 1.385416,0.543649 3.554822,2.48127 4.419145,3.946992 13.493712,13.434973 13.493712,14.108451 0,0.382419 -1.609436,2.196337 -1.937491,2.183653 -0.171307,-0.0066 -4.092826,-3.727327 -8.714487,-8.268229 z m -13.16052,6.92062 c -4.553195,-0.27879 -4.837032,-0.400934 -5.18,-2.229111 -0.297412,-1.585343 -0.127146,-1.703101 2.459717,-1.701167 5.030676,0.0038 13.949966,0.553584 14.152666,0.872432 0.331598,0.521605 0.235281,2.164136 -0.158481,2.702638 -0.324567,0.443872 -0.767421,0.509018 -3.770312,0.55463 -1.871402,0.02843 -5.248018,-0.06131 -7.50359,-0.199422 z m 82.868231,-0.357282 c -0.52986,-0.389886 -0.59772,-0.639303 -0.52917,-1.944842 l 0.0786,-1.4976 h 3.70417 c 2.03729,0 5.81448,-0.105045 8.39376,-0.233434 l 4.6896,-0.233434 0.2772,0.729103 c 0.15247,0.401007 0.20296,1.124896 0.11221,1.608642 -0.33175,1.768375 -0.008,1.696971 -8.44626,1.865535 -6.93761,0.138595 -7.73055,0.110443 -8.28015,-0.29397 z M 85.606018,86.810809 c -1.203609,-1.329625 -3.244066,-3.563787 -8.114687,-8.885038 -3.74696,-4.093629 -4.64982,-5.226099 -4.652923,-5.836231 -0.0029,-0.578619 1.259494,-1.641619 1.949616,-1.641619 0.508951,0 2.017069,1.440611 6.855294,6.548437 3.411538,3.60164 6.58614,6.992263 7.054669,7.534718 l 0.851872,0.98628 -0.56602,0.794902 c -0.633217,0.889271 -1.541477,1.598162 -2.04763,1.598162 -0.184138,0 -0.782724,-0.494825 -1.330191,-1.099611 z m 37.394292,0.251589 c -0.52313,-0.52313 -0.95115,-1.126505 -0.95115,-1.340835 0,-0.619784 3.4968,-4.72572 9.27555,-10.891323 1.09972,-1.173349 2.5421,-2.720039 3.20527,-3.437089 1.18711,-1.283544 1.21881,-1.298328 2.04787,-0.95492 0.46315,0.191845 1.02373,0.700053 1.24573,1.129351 0.37984,0.734522 0.36551,0.837625 -0.24308,1.74867 -0.63285,0.947373 -6.77339,7.627903 -11.33394,12.330625 l -2.29511,2.366666 z m -29.204666,-5.30354 c -0.149864,-0.181901 -0.563239,-0.985573 -0.91861,-1.785938 -0.355371,-0.800364 -1.420881,-2.645833 -2.367799,-4.101041 -1.846065,-2.837002 -3.120488,-5.188738 -3.120488,-5.758341 0,-0.193586 0.451504,-0.792856 1.003343,-1.331712 1.240264,-1.211086 2.182817,-1.292884 2.90532,-0.252134 1.054992,1.519695 5.302236,10.726522 5.538479,12.005863 0.09541,0.516682 -0.02897,0.805104 -0.484947,1.124479 -0.727613,0.509641 -2.170851,0.565456 -2.555298,0.09882 z m 21.903516,-0.165194 c -1.42452,-0.777262 -1.25411,-1.489235 1.86032,-7.772306 2.41391,-4.869849 2.79332,-5.490104 3.35833,-5.490104 1.07739,0 2.98344,1.279666 2.98344,2.002996 0,0.17779 -0.73063,1.424799 -1.62361,2.771131 -0.89298,1.346331 -2.3515,3.887535 -3.24114,5.647118 -0.88965,1.759584 -1.79614,3.232363 -2.01442,3.272843 -0.21828,0.04048 -0.81359,-0.153775 -1.32292,-0.431678 z m -11.75895,-1.415032 c -0.35027,-0.500071 -0.41188,-1.759734 -0.41188,-8.420545 v -7.832508 l 0.61236,-0.575287 c 0.72007,-0.676467 1.68167,-0.739227 2.50377,-0.16341 0.58535,0.409996 0.58804,0.448003 0.58804,8.317151 0,4.496103 -0.11128,8.197956 -0.25804,8.583955 -0.22384,0.588756 -0.41467,0.678682 -1.4402,0.678682 -0.92169,0 -1.27293,-0.129571 -1.59405,-0.588038 z M 88.909788,140.3395 c 5.555493,-6.18575 6.886662,-7.74336 9.911389,-11.5974 2.064023,-2.62993 2.585933,-3.48013 2.842393,-4.63021 0.74988,-3.36281 1.17727,-5.02384 1.99639,-7.75876 1.60904,-5.3724 1.78753,-5.36508 -3.22693,-0.13229 -2.44036,2.54661 -8.427483,8.6523 -13.304714,13.5682 -4.877231,4.9159 -8.867693,9.03033 -8.867693,9.14319 0,0.11285 0.836398,0.92505 1.858662,1.80489 1.022265,0.87984 2.451014,2.1995 3.175,2.93258 0.723985,0.73309 1.32967,1.34589 1.345966,1.3618 0.01629,0.0159 1.937587,-2.0955 4.269537,-4.692 z m 4.040475,-22.7296 c 1.222182,-1.27331 4.603796,-4.78739 7.514697,-7.80906 l 5.29255,-5.49396 2.24928,2.45125 c 1.23711,1.34819 4.60474,4.82641 7.48363,7.72939 l 5.23435,5.27813 0.93703,-0.9082 c 1.16793,-1.13201 2.37105,-3.50249 2.78587,-5.48896 0.37478,-1.79473 0.17357,-6.1538 -0.37704,-8.16861 -0.20497,-0.75002 -1.00804,-2.59549 -1.7846,-4.10104 -1.94764,-3.775972 -4.41705,-6.266513 -7.9353,-8.003186 -1.36841,-0.675476 -3.32146,-1.402043 -4.34011,-1.614592 -2.44194,-0.509532 -7.25131,-0.507706 -9.27097,0.0035 -3.505711,0.88738 -7.013154,3.245937 -10.064018,6.767482 -2.739692,3.162366 -4.192318,7.293656 -4.17837,11.883356 0.0096,3.16738 0.519751,5.49641 1.577913,7.20415 0.853785,1.37789 1.954013,2.58543 2.355673,2.58543 0.163497,0 1.297233,-1.0418 2.519415,-2.3151 z"
       id="path1" /></g><g
     inkscape:groupmode="layer"
     id="layer2"
     inkscape:label="Capa 2" /></svg>
