<?xml version="1.0" encoding="UTF-8" standalone="no"?>
<!-- Created with Inkscape (http://www.inkscape.org/) -->

<svg
   version="1.1"
   id="svg1"
   width="900"
   height="847"
   viewBox="0 0 900 847"
   sodipodi:docname="pájaro.svg"
   inkscape:version="1.3.2 (091e20e, 2023-11-25, custom)"
   xmlns:inkscape="http://www.inkscape.org/namespaces/inkscape"
   xmlns:sodipodi="http://sodipodi.sourceforge.net/DTD/sodipodi-0.dtd"
   xmlns="http://www.w3.org/2000/svg"
   xmlns:svg="http://www.w3.org/2000/svg">
  <defs
     id="defs1" />
  <sodipodi:namedview
     id="namedview1"
     pagecolor="#ffffff"
     bordercolor="#000000"
     borderopacity="0.25"
     inkscape:showpageshadow="2"
     inkscape:pageopacity="0.0"
     inkscape:pagecheckerboard="0"
     inkscape:deskcolor="#d1d1d1"
     showgrid="false"
     inkscape:zoom="0.91735537"
     inkscape:cx="430.58559"
     inkscape:cy="419.13964"
     inkscape:window-width="1920"
     inkscape:window-height="991"
     inkscape:window-x="-9"
     inkscape:window-y="-9"
     inkscape:window-maximized="1"
     inkscape:current-layer="g1" />
  <g
     inkscape:groupmode="layer"
     inkscape:label="Image"
     id="g1"
     transform="translate(22.891891,-4.3603605)">
    <path
       style="fill:#000000"
       d="m -22.891891,427.86036 c 0,-423.4999995 0,-423.4999995 449.999991,-423.4999995 450,0 450,0 450,423.4999995 0,423.5 0,423.5 -450,423.5 -449.999991,0 -449.999991,0 -449.999991,-423.5 z m 408.133491,320.5 c 20.42318,-61.69795 52.49912,-106.04573 138.87009,-192 77.77256,-77.39734 96.7037,-99.7823 116.84916,-138.16723 27.52246,-52.44102 29.67301,-110.93195 6.24426,-169.83277 -2.98324,-7.5 -2.98324,-7.5 -2.714,1 2.31222,72.99807 -27.48559,122.35462 -127.38301,210.99486 -81.02654,71.89587 -113.78993,114.91142 -130.62927,171.50514 -3.63764,12.22538 -4.17506,10.67357 -1.8129,-5.23475 9.01357,-60.70329 37.58235,-107.16279 119.53329,-194.38897 45.12826,-48.03319 55.18129,-59.43721 70.14098,-79.56689 67.85972,-91.31177 46.98189,-167.56955 -74.13025,-270.765986 -2.8624,-2.438975 -3.06856,-3.664876 2.34708,13.956596 28.10804,91.45815 30.79854,167.01578 8.01692,225.13967 -13.30237,33.939 -31.10486,59.05553 -74.96585,105.76506 -39.74767,42.32907 -55.66201,62.96736 -68.78446,89.2022 -30.69474,61.36593 -29.80714,134.84517 2.86559,237.22602 8.08822,25.34467 7.25986,24.02349 9.50953,15.16705 1.04781,-4.125 3.76709,-13.125 6.04284,-20 z m -60.17881,-186 c 9.51778,-68.34688 42.77619,-126.18374 97.49663,-169.54804 8.4591,-6.70359 -138.8299,-12.47875 -151.47575,-5.93933 -4.44735,2.29982 -9.58907,7.14006 -10.87011,10.23277 -1.14099,2.7546 -1.14099,2.7546 -13.87323,2.79405 -24.5533,0.0761 -39.645,7.2206 -50.41236,23.86559 -5.09514,7.87644 -5.0195,8.09348 2.93013,8.40715 59.23379,2.33721 107.8279,69.15653 121.95035,167.68781 0.58814,4.10346 0.92769,1.95175 1.89365,-12 0.64735,-9.35 1.70966,-20.825 2.36069,-25.5 z"
       id="path3"
       inkscape:label="path3" />
  </g>
</svg>
